<svg xmlns="http://www.w3.org/2000/svg" viewBox="0 0 2884 1009" role="img" aria-label="Plumb" xmlns:c2pa="http://c2pa.org/manifest"><metadata><c2pa:manifest>AAAWgmp1bWIAAAAeanVtZGMycGEAEQAQgAAAqgA4m3EDYzJwYQAAABZcanVtYgAAAEdqdW1kYzJtYQARABCAAACqADibcQN1cm46YzJwYTowOTM4MDM4Mi04YmJiLTQyZTQtODQyMi03ODg4ODcwMTZiZDcAAAADl2p1bWIAAAApanVtZGMyYXMAEQAQgAAAqgA4m3EDYzJwYS5hc3NlcnRpb25zAAAAALxqdW1iAAAARGp1bWRjYm9yABEAEIAAAKoAOJtxE2MycGEuaW5ncmVkaWVudC52MwAAAAAYYzJzaJZewIwTrU5HbgoMEjcPivYAAABwY2JvcqNpZGM6Zm9ybWF0bWltYWdlL3N2Zyt4bWxqaW5zdGFuY2VJRHgseG1wOmlpZDo3MDQzMjM5MC1iZGJkLTQzMjktYmUxMi0xOWNmZWRjNmJhZGRscmVsYXRpb25zaGlwaHBhcmVudE9mAAAB4mp1bWIAAABBanVtZGNib3IAEQAQgAAAqgA4m3ETYzJwYS5hY3Rpb25zLnYyAAAAABhjMnNoqggwonMZlpVSl43YTEULCAAAAZljYm9yomdhY3Rpb25zgqJmYWN0aW9ua2MycGEub3BlbmVkanBhcmFtZXRlcnOha2luZ3JlZGllbnRzgaJjdXJseC1zZWxmI2p1bWJmPWMycGEuYXNzZXJ0aW9ucy9jMnBhLmluZ3JlZGllbnQudjNkaGFzaFgge/7VrIL1P95rYt8gwgtrZqIgzc06DSRcm05C5gXrz72kZmFjdGlvbngdY29tLmFudGhyb3BpYy5jbGF1ZGUucHJvdmlkZWRqcGFyYW1ldGVyc6F4H2NvbS5hbnRocm9waWMub3JpZ2luLWNvbmZpZGVuY2VndW5rbm93bmtkZXNjcmlwdGlvbnhmQ2xhdWRlIHByb3ZpZGVkIHRoaXMgZmlsZSBhdCB0aGUgcmVxdWVzdCBvZiBhIHVzZXIgYW5kIG1heSBoYXZlIGNyZWF0ZWQgb3IgbW9kaWZpZWQgdGhlIGZpbGUgY29udGVudHMubXNvZnR3YXJlQWdlbnShZG5hbWVmQ2xhdWRlcmFsbEFjdGlvbnNJbmNsdWRlZPUAAADIanVtYgAAAEBqdW1kY2JvcgARABCAAACqADibcRNjMnBhLmhhc2guZGF0YQAAAAAYYzJzaAehcXCix7WwF9XKFXxp7s0AAACAY2JvcqVjYWxnZnNoYTI1NmNwYWRNAAAAAAAAAAAAAAAAAGRoYXNoWCCE3darxQhkDnk8bxIDAltsdRBr20M0NcGihs6cUjboLGRuYW1lbmp1bWJmIG1hbmlmZXN0amV4Y2x1c2lvbnOBomVzdGFydBidZmxlbmd0aBkeBAAAAj5qdW1iAAAAJ2p1bWRjMmNsABEAEIAAAKoAOJtxA2MycGEuY2xhaW0udjIAAAACD2Nib3KlY2FsZ2ZzaGEyNTZpc2lnbmF0dXJleE1zZWxmI2p1bWJmPS9jMnBhL3VybjpjMnBhOjA5MzgwMzgyLThiYmItNDJlNC04NDIyLTc4ODg4NzAxNmJkNy9jMnBhLnNpZ25hdHVyZWppbnN0YW5jZUlEeCx4bXA6aWlkOjRkNWJkNmRiLWE5M2MtNDhhNS04YTY0LWQwNzcxMjRhYWZkN3JjcmVhdGVkX2Fzc2VydGlvbnODomN1cmx4LXNlbGYjanVtYmY9YzJwYS5hc3NlcnRpb25zL2MycGEuaW5ncmVkaWVudC52M2RoYXNoWCB7/tWsgvU/3mti3yDCC2tmoiDNzToNJFybTkLmBevPvaJjdXJseCpzZWxmI2p1bWJmPWMycGEuYXNzZXJ0aW9ucy9jMnBhLmFjdGlvbnMudjJkaGFzaFgg2aogDwdMCA5+G5/qt5JVzZfDl+h5nDnrLklQ4Qc+upiiY3VybHgpc2VsZiNqdW1iZj1jMnBhLmFzc2VydGlvbnMvYzJwYS5oYXNoLmRhdGFkaGFzaFggycE4P5dhcv5g3MA72QtVBKx7Le6wKQ9ik5GnVYKVcKB0Y2xhaW1fZ2VuZXJhdG9yX2luZm+jZG5hbWVvQW50aHJvcGljIEZpbGVzZ3ZlcnNpb25lMS4wLjBrc3BlY1ZlcnNpb25lMi40LjAAABA4anVtYgAAAChqdW1kYzJjcwARABCAAACqADibcQNjMnBhLnNpZ25hdHVyZQAAABAIY2JvctKEWQISogEmGCFZAgowggIGMIIBjaADAgECAhRA5aAK7sI50L64g/oGQgU9Z1UTADAKBggqhkjOPQQDAzBJMRcwFQYDVQQKEw5BbnRocm9waWMsIFBCQzEuMCwGA1UEAxMlQW50aHJvcGljIENvbnRlbnQgQ3JlZGVudGlhbHMgUm9vdCBDQTAeFw0yNjA4MDcxODQzNTZaFw0yODA4MDYxOTQzNTZaMEQxFzAVBgNVBAoTDkFudGhyb3BpYywgUEJDMSkwJwYDVQQDEyBBbnRocm9waWMgQ2xhdWRlIENvbnRlbnQgU2lnbmluZzBZMBMGByqGSM49AgEGCCqGSM49AwEHA0IABJh6CmvLUBgFFNU0vUKlOVtE6djd17L5SuwX0LemFisBM3dkd/3cyjxFA3Qo5S46fX0/ihY0VZ7mfb9KF703t5OjWDBWMA4GA1UdDwEB/wQEAwIHgDAVBgNVHSUEDjAMBgorBgEEAYPoXgIBMAwGA1UdEwEB/wQCMAAwHwYDVR0jBBgwFoAUzlHiBIFOZFsj+OPEz5o+nMHXXMIwCgYIKoZIzj0EAwMDZwAwZAIwMXMdFJ4BetLLVY7ORuE9noqbbAZOZn/aArXyTwFAZfKrPzxF2vPoJNf1+UCdg1XGAjBwX1zd9WGqYkqmL5SFqw1QySjr1zJfpJM9+1rdDwSPLMOPOjKuiXjoU/pUUeG9RwmhY3BhZFkNngAAAAAAAAAAAAAAAAAAAAAAAAAAAAAAAAAAAAAAAAAAAAAAAAAAAAAAAAAAAAAAAAAAAAAAAAAAAAAAAAAAAAAAAAAAAAAAAAAAAAAAAAAAAAAAAAAAAAAAAAAAAAAAAAAAAAAAAAAAAAAAAAAAAAAAAAAAAAAAAAAAAAAAAAAAAAAAAAAAAAAAAAAAAAAAAAAAAAAAAAAAAAAAAAAAAAAAAAAAAAAAAAAAAAAAAAAAAAAAAAAAAAAAAAAAAAAAAAAAAAAAAAAAAAAAAAAAAAAAAAAAAAAAAAAAAAAAAAAAAAAAAAAAAAAAAAAAAAAAAAAAAAAAAAAAAAAAAAAAAAAAAAAAAAAAAAAAAAAAAAAAAAAAAAAAAAAAAAAAAAAAAAAAAAAAAAAAAAAAAAAAAAAAAAAAAAAAAAAAAAAAAAAAAAAAAAAAAAAAAAAAAAAAAAAAAAAAAAAAAAAAAAAAAAAAAAAAAAAAAAAAAAAAAAAAAAAAAAAAAAAAAAAAAAAAAAAAAAAAAAAAAAAAAAAAAAAAAAAAAAAAAAAAAAAAAAAAAAAAAAAAAAAAAAAAAAAAAAAAAAAAAAAAAAAAAAAAAAAAAAAAAAAAAAAAAAAAAAAAAAAAAAAAAAAAAAAAAAAAAAAAAAAAAAAAAAAAAAAAAAAAAAAAAAAAAAAAAAAAAAAAAAAAAAAAAAAAAAAAAAAAAAAAAAAAAAAAAAAAAAAAAAAAAAAAAAAAAAAAAAAAAAAAAAAAAAAAAAAAAAAAAAAAAAAAAAAAAAAAAAAAAAAAAAAAAAAAAAAAAAAAAAAAAAAAAAAAAAAAAAAAAAAAAAAAAAAAAAAAAAAAAAAAAAAAAAAAAAAAAAAAAAAAAAAAAAAAAAAAAAAAAAAAAAAAAAAAAAAAAAAAAAAAAAAAAAAAAAAAAAAAAAAAAAAAAAAAAAAAAAAAAAAAAAAAAAAAAAAAAAAAAAAAAAAAAAAAAAAAAAAAAAAAAAAAAAAAAAAAAAAAAAAAAAAAAAAAAAAAAAAAAAAAAAAAAAAAAAAAAAAAAAAAAAAAAAAAAAAAAAAAAAAAAAAAAAAAAAAAAAAAAAAAAAAAAAAAAAAAAAAAAAAAAAAAAAAAAAAAAAAAAAAAAAAAAAAAAAAAAAAAAAAAAAAAAAAAAAAAAAAAAAAAAAAAAAAAAAAAAAAAAAAAAAAAAAAAAAAAAAAAAAAAAAAAAAAAAAAAAAAAAAAAAAAAAAAAAAAAAAAAAAAAAAAAAAAAAAAAAAAAAAAAAAAAAAAAAAAAAAAAAAAAAAAAAAAAAAAAAAAAAAAAAAAAAAAAAAAAAAAAAAAAAAAAAAAAAAAAAAAAAAAAAAAAAAAAAAAAAAAAAAAAAAAAAAAAAAAAAAAAAAAAAAAAAAAAAAAAAAAAAAAAAAAAAAAAAAAAAAAAAAAAAAAAAAAAAAAAAAAAAAAAAAAAAAAAAAAAAAAAAAAAAAAAAAAAAAAAAAAAAAAAAAAAAAAAAAAAAAAAAAAAAAAAAAAAAAAAAAAAAAAAAAAAAAAAAAAAAAAAAAAAAAAAAAAAAAAAAAAAAAAAAAAAAAAAAAAAAAAAAAAAAAAAAAAAAAAAAAAAAAAAAAAAAAAAAAAAAAAAAAAAAAAAAAAAAAAAAAAAAAAAAAAAAAAAAAAAAAAAAAAAAAAAAAAAAAAAAAAAAAAAAAAAAAAAAAAAAAAAAAAAAAAAAAAAAAAAAAAAAAAAAAAAAAAAAAAAAAAAAAAAAAAAAAAAAAAAAAAAAAAAAAAAAAAAAAAAAAAAAAAAAAAAAAAAAAAAAAAAAAAAAAAAAAAAAAAAAAAAAAAAAAAAAAAAAAAAAAAAAAAAAAAAAAAAAAAAAAAAAAAAAAAAAAAAAAAAAAAAAAAAAAAAAAAAAAAAAAAAAAAAAAAAAAAAAAAAAAAAAAAAAAAAAAAAAAAAAAAAAAAAAAAAAAAAAAAAAAAAAAAAAAAAAAAAAAAAAAAAAAAAAAAAAAAAAAAAAAAAAAAAAAAAAAAAAAAAAAAAAAAAAAAAAAAAAAAAAAAAAAAAAAAAAAAAAAAAAAAAAAAAAAAAAAAAAAAAAAAAAAAAAAAAAAAAAAAAAAAAAAAAAAAAAAAAAAAAAAAAAAAAAAAAAAAAAAAAAAAAAAAAAAAAAAAAAAAAAAAAAAAAAAAAAAAAAAAAAAAAAAAAAAAAAAAAAAAAAAAAAAAAAAAAAAAAAAAAAAAAAAAAAAAAAAAAAAAAAAAAAAAAAAAAAAAAAAAAAAAAAAAAAAAAAAAAAAAAAAAAAAAAAAAAAAAAAAAAAAAAAAAAAAAAAAAAAAAAAAAAAAAAAAAAAAAAAAAAAAAAAAAAAAAAAAAAAAAAAAAAAAAAAAAAAAAAAAAAAAAAAAAAAAAAAAAAAAAAAAAAAAAAAAAAAAAAAAAAAAAAAAAAAAAAAAAAAAAAAAAAAAAAAAAAAAAAAAAAAAAAAAAAAAAAAAAAAAAAAAAAAAAAAAAAAAAAAAAAAAAAAAAAAAAAAAAAAAAAAAAAAAAAAAAAAAAAAAAAAAAAAAAAAAAAAAAAAAAAAAAAAAAAAAAAAAAAAAAAAAAAAAAAAAAAAAAAAAAAAAAAAAAAAAAAAAAAAAAAAAAAAAAAAAAAAAAAAAAAAAAAAAAAAAAAAAAAAAAAAAAAAAAAAAAAAAAAAAAAAAAAAAAAAAAAAAAAAAAAAAAAAAAAAAAAAAAAAAAAAAAAAAAAAAAAAAAAAAAAAAAAAAAAAAAAAAAAAAAAAAAAAAAAAAAAAAAAAAAAAAAAAAAAAAAAAAAAAAAAAAAAAAAAAAAAAAAAAAAAAAAAAAAAAAAAAAAAAAAAAAAAAAAAAAAAAAAAAAAAAAAAAAAAAAAAAAAAAAAAAAAAAAAAAAAAAAAAAAAAAAAAAAAAAAAAAAAAAAAAAAAAAAAAAAAAAAAAAAAAAAAAAAAAAAAAAAAAAAAAAAAAAAAAAAAAAAAAAAAAAAAAAAAAAAAAAAAAAAAAAAAAAAAAAAAAAAAAAAAAAAAAAAAAAAAAAAAAAAAAAAAAAAAAAAAAAAAAAAAAAAAAAAAAAAAAAAAAAAAAAAAAAAAAAAAAAAAAAAAAAAAAAAAAAAAAAAAAAAAAAAAAAAAAAAAAAAAAAAAAAAAAAAAAAAAAAAAAAAAAAAAAAAAAAAAAAAAAAAAAAAAAAAAAAAAAAAAAAAAAAAAAAAAAAAAAAAAAAAAAAAAAAAAAAAAAAAAAAAAAAAAAAAAAAAAAAAAAAAAAAAAAAAAAAAAAAAAAAAAAAAAAAAAAAAAAAAAAAAAAAAAAAAAAAAAAAAAAAAAAAAAAAAAAAAAAAAAAAAAAAAAAAAAAAAAAAAAAAAAAAAAAAAAAAAAAAAAAAAAAAAAAAAAAAAAAAAAAAAAAAAAAAAAAAAAAAAAAAAAAAAAAAAAAAAAAAAAAAAAAAAAAAAAAAAAAAAAAAAAAAAAAAAAAAAAAAAAAAAAAAAAAAAAAAAAAAAAAAAAAAAAAAAAAAAAAAAAAAAAAAAAAAAAAAAAAAAAAAAAAAAAAAAAAAAAAAAAAAAAAAAAAAAAAAAAAAAAAAAAAAAAAAAAAAAAAAAAAAAAAAAAAAAAAAAAAAAAAAAAAAAAAAAAAAAAAAAAAAAAAAAAAAAAAAAAAAAAAAAAAAAAAAAAAAAAAAAAAAAAAAAAAAAAAAAAAAAAAAAAAAAAAAAAAAAAAAAAAAAAAAAAAAAAAAAAAAAAAAAAAAAAAAAAAAAAAAAAAAAAAAAAAAAAAAAAAAAAAAAAAAAAAAAAAAAAAAAAAAAAAAAAAAAAAAAAAAAAAAAAAAAAAAAAAAAAAAAAAAAAAAAAAAAAAAAAAAAAAAAAAAAAAAAAAAAAAAAAAAAAAAAAAAAAAAAAAAAAAAAAAAAAAAAAAAAAAAAAAAAAAAAAAAAAAAAAAAAAAAAAAAAAAAAAAAAAAAAAAAAAAAAAAAAAAAAAAAAAAAAAAAAAAAAAAAAAAAAAAAAAAAAAAAAAAAAAAAAAAAAAAAAAAAAAAAAAAAAAAAAAAAAAAAAAAAAAAAAAAAAAAAAAAAAAAAAAAAAAAAAAAAAAAAAAAAAAAAAAAAAAAAAAAAAAAAAAAAAAAAAAAAAAAAAAAAAAAAAAAAAAAAAAAAAAAAAAAAAAAAAAAAAAAAAAAAAAAAAAAAAAAAAAAAAAAAAAAAAAAAAAAAAAAAAAAAAAAAAAAAAAAAAAAAAAAAAAAAAAAAAAAAAAAAAAAAAAAAAAAAAAAAAAAAAAAAAAAAAAAAAAAAAAAAAAAAAAAAAAAAAAAAAAAAAAAAAAAAAAAAAAAAAAAAAAAAAAAAAAAAAAAAAAAAAAAAAAAAAAAAAAAAAAAAAAAAAAAAAAAAAAAAAAAAAAAAAAAAAAAAAAAAAAAAAAAAAAAAAAAAAAAAAAAAAAAAAAAAAAAAAAAAAAAAAAAAAAAAAAAAAAAAAAAAAAAAAAAAAAAAAAAAAAAAAAAAAAAAAAAAAAAAAAAAAAAAAAAAAAAAAAAAAAAAAAAAAAAAAAAAAAAAAAAAAAAAAAAAAAAAAAAAAAAAAAAAAAAAAAAAAAAAAAAAAAAAAAAAAAAAAAAAAAAAAAAAAAAAAAAAAAAAAAAAAAAAAAAAAAAAAAAAAAAAAAAAPZYQC71w/StjpcZb6jEjkEw2n254fFiJEjraX4YDXGTAF1nErTzEsfTthmHUF7eJogTA9j69X+thwZX5Kz5t+PByb0=</c2pa:manifest></metadata>
  <g transform="translate(-61 707) scale(1 -1)">
    <g fill="#17171a">
      <path transform="translate(0 0)" d="M162.54542468488216 189.81043352931738V304.30904134362936H305.4029860794544Q376.04666574299335 304.30904134362936 411.2137930803001 332.6069074384868Q446.38092041760683 360.90477353334427 446.38092041760683 426.4766409769654Q446.38092041760683 486.1438191756606 413.95192028954625 516.1559346541762Q381.5229201614857 546.1680501326919 313.68882243335247 546.1680501326919H162.54542468488216V660H320.141264423728Q381.093508772552 660 431.176749099046 645.6071632020175Q481.25998942553997 631.2143264040351 517.54563395679 602.166748046875Q553.83127848804 573.1191696897149 573.3907732330263 528.8930809386075Q592.9502679780126 484.6669921875 592.9502679780126 424.6433396115899Q592.9502679780126 347.69114758074284 558.1170261986554 295.3698091097176Q523.2837844192982 243.04847063869238 455.77203515172005 216.42945208400488Q388.2602858841419 189.81043352931738 288.4033697247505 189.81043352931738ZM60.80942789465189 0V660H204.83112734556198V0Z"/>
      <path transform="translate(618 0)" d="M54.95231410115957 0V706.5228591188788H197.47408039867878V0Z"/>
      <path transform="translate(870 0)" d="M227.07095482945442 -13.738066174089909Q137.07110595703125 -13.738066174089909 92.58315313234925 48.33335368335247Q48.095200307667255 110.40477354079485 48.095200307667255 237.88097565621138V525.1901274174452H192.5930640771985V249.1661348193884Q192.5930640771985 175.7132045328617 213.7003086619079 142.0820603184402Q234.80755324661732 108.45091610401869 278.21267265081406 108.45091610401869Q305.0700131505728 108.45091610401869 325.78449795767665 121.8676568865776Q346.4989827647805 135.28439766913652 361.47533309459686 160.93936593458056Q376.4516834244132 186.5943342000246 384.35656739771366 223.27334450557828Q392.2614513710141 259.95235481113195 392.9281790703535 306.8102359101176V525.1901274174452H536.7831915095448V226.78662982583046L536.9260719045997 0H417.1179228425026L418.49932281672955 182.81058175861835H404.4995785802603Q393.3806646540761 113.97691418230534 371.15445383265615 70.53621564805508Q348.9282430112362 27.095517113804817 313.51150949671865 6.678725469857454Q278.0947759822011 -13.738066174089909 227.07095482945442 -13.738066174089909Z"/>
      <path transform="translate(1462 0)" d="M55.02375429868698 0V311.5216093286872L54.809433706104755 525.1901274174452H173.47479247301817L171.61722818017006 340.7598760575056H186.521725602448Q197.42635671794415 410.16523087769747 219.29535783454776 453.7251252606511Q241.16435895115137 497.28501964360476 274.8548758327961 518.1423267163336Q308.5453927144408 538.9996337890625 354.33120872825384 538.9996337890625Q402.8075590580702 538.9996337890625 433.783787317574 516.2970406673849Q464.76001557707787 493.5944475457072 480.92656453326344 449.80835542082787Q497.093113489449 406.0222632959485 498.83093552291393 341.140863314271H511.92602248489857Q523.2591145858169 410.59372383356094 547.1994469091296 454.1059948094189Q571.1397792324424 497.6182657852769 607.0088224932551 518.3089497871697Q642.8778657540679 538.9996337890625 688.6400030329823 538.9996337890625Q731.0922328531742 538.9996337890625 762.6159377470613 522.7615995854139Q794.1396426409483 506.52356538176537 815.5086277723312 474.3927292563021Q836.8776129037142 442.26189313083887 847.3537772223353 393.8215985894203Q857.8299415409565 345.38130404800177 857.8299415409565 281.45294769108295V0H713.4273245856166V265.3341296762228Q713.4273245856166 315.12004451453686 705.1296575814486 348.215377073735Q696.8319905772805 381.31070963293314 679.7009553611279 397.56074741855264Q662.5699201449752 413.81078520417213 635.5698155090213 413.81078520417213Q603.3790486678481 413.81078520417213 579.1764322929084 389.9771655835211Q554.9738159179688 366.1435459628701 541.1284237839282 322.0834742859006Q527.2830316498876 278.02340260893106 526.4258103221655 217.1416073590517V0H385.52313233166933V264.5961041972041Q385.52313233166933 315.3581339418888 376.7612043172121 348.13204374164343Q367.9992763027549 380.90595354139805 350.4873046912253 397.3583693727851Q332.9753330796957 413.81078520417213 306.427586145699 413.81078520417213Q274.4273013100028 413.81078520417213 250.64134142920375 390.88193475455046Q226.8553815484047 367.9530843049288 213.24806139990687 323.70251899957657Q199.64074125140905 279.45195369422436 198.87876673787832 216.57012647390366V0Z"/>
      <path transform="translate(2368 0)" d="M366.30733235925436 -13.738066174089909Q318.1645159050822 -13.738066174089909 282.17645990103483 6.011993408203125Q246.18840389698744 25.76205299049616 223.22413271293044 64.16683960333467Q200.25986152887344 102.57162621617317 190.56930105388165 157.9525088518858H176.56955681741238L177.11752173304558 0H54.809433706104755L54.95231410115957 233.42806864529848L54.809433706104755 706.5228591188788H198.90257335454226V544.0237252414227Q198.90257335454226 518.4760248139501 196.00975254178047 489.3925301730633Q193.1169317290187 460.3090355321765 188.23601422458887 428.83265468105674Q183.35509672015905 397.356273829937 176.99798583239317 363.71321322768927H193.783371694386Q205.18799990415573 420.45135206729174 227.85463605448604 459.22534469887614Q250.52127220481634 497.99933733046055 286.12850661575794 518.0233212411404Q321.73574102669954 538.0473051518202 370.04546247422695 538.0473051518202Q432.8786533921957 538.0473051518202 479.0571289099753 505.59497360885143Q525.2356044277549 473.1426420658827 550.8069777786732 411.9046078622341Q576.3783511295915 350.66657365858555 576.3783511295915 263.1190069243312Q576.3783511295915 174.54745337367058 550.0688345842063 112.7855776771903Q523.7593180388212 51.02370198071003 476.5689261332154 18.64281790331006Q429.37853422760963 -13.738066174089909 366.30733235925436 -13.738066174089909ZM316.9037446528673 103.236572265625Q351.30879720300436 103.236572265625 376.2494187168777 123.26053001731634Q401.19004023075104 143.28448776900768 414.4639166034758 178.7966773621738Q427.7377929762006 214.3088669553399 427.7377929762006 260.4759085550904Q427.7377929762006 307.0953282043338 414.99961054325104 342.8099467046559Q402.2614281103015 378.524565204978 377.9159894697368 399.11999076232314Q353.57055082917213 419.7154163196683 318.4512212872505 419.7154163196683Q296.4747110977769 419.7154163196683 277.62927536293864 411.4057326540351Q258.7838396281004 403.0960489884019 244.34325735270977 388.3458150178194Q229.90267507731915 373.5955810472369 219.53359112888575 354.47629219293594Q209.16450718045235 335.35700333863497 203.73592848703265 313.26160975173116Q198.30734979361296 291.16621616482735 198.30734979361296 268.6186087504029V254.71418108046055Q198.30734979361296 226.76159378141165 206.0455496609211 199.74944052100182Q213.78374952822924 172.73728726059198 228.84343319013715 150.9394458681345Q243.90311685204506 129.141604475677 266.0223737359047 116.189088370651Q288.1416306197643 103.236572265625 316.9037446528673 103.236572265625Z"/>
      <rect x="673" y="-62" width="143" height="62"/>
    </g>
    <polygon fill="#ff9d4d" points="637,-62 851,-62 837,-134 744,-302 652,-134"/>
  </g>
</svg>
