<svg xmlns="http://www.w3.org/2000/svg" viewBox="0 0 4478 736" role="img" aria-label="Hueristic">
  <g fill="#f5f5f5" transform="translate(-75 724) scale(1 -1)">
    <path transform="translate(0 0)" d="M74.9130859375 0V687.0869140625H254.36767578125V423.3037109375H532.521484375V687.0869140625H711.97607421875V0H532.521484375V276.5224609375H254.36767578125V0Z"/>
    <path transform="translate(787 0)" d="M237.4345703125 -12Q151.65234375 -12 105.510986328125 35.206298828125Q59.36962890625 82.41259765625 59.36962890625 179.15185546875V527.0869140625H223.2158203125V202.23876953125Q223.2158203125 180.76025390625 228.62890625 164.705810546875Q234.0419921875 148.6513671875 244.096435546875 137.966552734375Q254.15087890625 127.28173828125 269.43359375 122.010009765625Q284.71630859375 116.73828125 303.45556640625 116.73828125Q332.10791015625 116.73828125 354.26025390625 130.292724609375Q376.41259765625 143.84716796875 389.1953125 167.184326171875Q401.97802734375 190.521484375 401.97802734375 218.9130859375V527.0869140625H565.82421875V0H431.1298828125L421.1298828125 75.4345703125H414.1298828125Q395.58642578125 48.71728515625 368.369140625 28.858642578125Q341.15185546875 9 307.749755859375 -1.5Q274.34765625 -12 237.4345703125 -12Z"/>
    <path transform="translate(1416 0)" d="M320.3466796875 -12Q230.36865234375 -12 167.031982421875 17.5Q103.6953125 47 70.532470703125 108.0Q37.36962890625 169 37.36962890625 263.54345703125Q37.36962890625 357.45654296875 70.2607421875 418.228271484375Q103.15185546875 479 164.858154296875 509.04345703125Q226.564453125 539.0869140625 313.8251953125 539.0869140625Q400.15087890625 539.0869140625 459.802734375 510.04345703125Q519.45458984375 481 550.345703125 420.9130859375Q581.23681640625 360.826171875 581.23681640625 266.28271484375V231.36962890625H202.58544921875Q203.49853515625 189.4345703125 215.139892578125 160.010498046875Q226.78125 130.58642578125 252.107421875 115.716796875Q277.43359375 100.84716796875 318.62939453125 100.84716796875Q343.80322265625 100.84716796875 362.988037109375 106.84716796875Q382.1728515625 112.84716796875 395.270751953125 124.26025390625Q408.36865234375 135.67333984375 414.966552734375 151.9560546875Q421.564453125 168.23876953125 421.564453125 188.34765625H581.23681640625Q581.23681640625 139.97802734375 563.465087890625 102.4345703125Q545.693359375 64.89111328125 511.747802734375 39.532470703125Q477.80224609375 14.173828125 429.552490234375 1.0869140625Q381.302734375 -12 320.3466796875 -12ZM204.0419921875 321.71728515625H414.02099609375Q414.02099609375 348.19580078125 407.336181640625 367.663330078125Q400.6513671875 387.130859375 388.23828125 400.228759765625Q375.8251953125 413.32666015625 358.183837890625 419.554931640625Q340.54248046875 425.783203125 318.1728515625 425.783203125Q282.43359375 425.783203125 258.379150390625 413.8701171875Q234.32470703125 401.95703125 221.41162109375 379.032958984375Q208.49853515625 356.10888671875 204.0419921875 321.71728515625Z"/>
    <path transform="translate(2035 0)" d="M62.28271484375 0V527.0869140625H197.43359375L209.06396484375 445.71728515625H216.06396484375Q227.6943359375 473.4345703125 245.455078125 494.662841796875Q263.2158203125 515.89111328125 288.3896484375 527.7607421875Q313.5634765625 539.63037109375 344.93310546875 539.63037109375Q363.10693359375 539.63037109375 377.965576171875 536.0869140625Q392.82421875 532.54345703125 399.82421875 529V385.740234375H348.15087890625Q316.607421875 385.740234375 293.422607421875 377.240234375Q270.23779296875 368.740234375 255.3681640625 351.555419921875Q240.49853515625 334.37060546875 233.313720703125 309.272705078125Q226.12890625 284.1748046875 226.12890625 251.435546875V0Z"/>
    <path transform="translate(2442 0)" d="M62.28271484375 0V527.0869140625H226.12890625V0Z"/>
    <path transform="translate(2730 0)" d="M288.4775390625 -12Q236.36865234375 -12 190.923095703125 -1.13037109375Q145.4775390625 9.7392578125 110.771240234375 30.924072265625Q76.06494140625 52.10888671875 56.402099609375 82.967529296875Q36.7392578125 113.826171875 36.7392578125 154.80419921875Q36.7392578125 158.71728515625 36.967529296875 162.445556640625Q37.19580078125 166.173828125 37.7392578125 169.2607421875H193.06396484375Q192.5205078125 166.71728515625 192.5205078125 164.173828125Q192.5205078125 161.63037109375 192.5205078125 159.63037109375Q193.5205078125 137.521484375 207.074951171875 123.467041015625Q220.62939453125 109.41259765625 242.8251953125 102.9560546875Q265.02099609375 96.49951171875 290.76025390625 96.49951171875Q310.23876953125 96.49951171875 331.56494140625 100.097412109375Q352.89111328125 103.6953125 368.119384765625 113.749755859375Q383.34765625 123.80419921875 383.34765625 143.2607421875Q383.34765625 164.36962890625 364.706298828125 175.380615234375Q346.06494140625 186.3916015625 315.73876953125 193.489501953125Q285.41259765625 200.58740234375 250.04296875 208.41357421875Q214.869140625 215.783203125 179.423583984375 225.968017578125Q143.97802734375 236.15283203125 114.489013671875 253.424560546875Q85 270.6962890625 66.86962890625 298.783203125Q48.7392578125 326.8701171875 48.7392578125 370.130859375Q48.7392578125 416.19580078125 68.184814453125 448.45654296875Q87.63037109375 480.71728515625 121.706298828125 500.7607421875Q155.7822265625 520.80419921875 200.314697265625 529.989013671875Q244.84716796875 539.173828125 295.02099609375 539.173828125Q340.93408203125 539.173828125 382.69482421875 529.989013671875Q424.45556640625 520.80419921875 457.574951171875 502.30419921875Q490.6943359375 483.80419921875 509.726806640625 455.402099609375Q528.75927734375 427 528.75927734375 389.02197265625Q528.75927734375 384.19580078125 528.531005859375 378.554443359375Q528.302734375 372.9130859375 527.75927734375 371.36962890625H373.97802734375V378.9130859375Q373.97802734375 395.7392578125 363.021484375 407.0654296875Q352.06494140625 418.3916015625 333.2822265625 424.489501953125Q314.49951171875 430.58740234375 290.6513671875 430.58740234375Q276.43359375 430.58740234375 261.6943359375 428.489501953125Q246.955078125 426.3916015625 234.91162109375 421.5654296875Q222.8681640625 416.7392578125 215.509521484375 408.826171875Q208.15087890625 400.9130859375 208.15087890625 388.826171875Q208.15087890625 373.63037109375 221.248779296875 364.532470703125Q234.3466796875 355.4345703125 256.5859375 349.336669921875Q278.8251953125 343.23876953125 305.564453125 336.41259765625Q342.6513671875 328.04296875 383.912109375 319.716796875Q425.1728515625 311.390625 461.47705078125 295.662353515625Q497.78125 279.93408203125 520.49853515625 249.575439453125Q543.2158203125 219.216796875 543.2158203125 166.32568359375Q543.2158203125 115.97802734375 523.270263671875 81.30419921875Q503.32470703125 46.63037109375 468.292236328125 26.315185546875Q433.259765625 6 386.95556640625 -3.0Q340.6513671875 -12 288.4775390625 -12Z"/>
    <path transform="translate(3309 0)" d="M247.4765625 -12Q195.75927734375 -12 160.422607421875 3.69580078125Q125.0859375 19.3916015625 107.336181640625 50.163330078125Q89.58642578125 80.93505859375 89.58642578125 124.89111328125V408.06591796875H20.6083984375V527.0869140625H95.3037109375L128.71630859375 681.15185546875H253.4326171875V527.0869140625H355.84521484375V408.06591796875H253.4326171875V164.607421875Q253.4326171875 136.54248046875 264.4326171875 121.78173828125Q275.4326171875 107.02099609375 303.9541015625 107.02099609375H355.84521484375V5.0869140625Q342.58447265625 0.54345703125 323.193359375 -3.5Q303.80224609375 -7.54345703125 283.726318359375 -9.771728515625Q263.650390625 -12 247.4765625 -12Z"/>
    <path transform="translate(3694 0)" d="M62.28271484375 597.76123046875V724.0869140625H226.12890625V597.76123046875ZM62.28271484375 0V527.0869140625H226.12890625V0Z"/>
    <path transform="translate(3982 0)" d="M310.62939453125 -12Q224.28173828125 -12 163.26025390625 18.04345703125Q102.23876953125 48.0869140625 69.80419921875 109.358642578125Q37.36962890625 170.63037109375 37.36962890625 263.54345703125Q37.36962890625 357.45654296875 70.032470703125 418.5Q102.6953125 479.54345703125 163.716796875 509.5869140625Q224.73828125 539.63037109375 310.62939453125 539.63037109375Q367.43359375 539.63037109375 414.955078125 526.63037109375Q462.4765625 513.63037109375 497.682861328125 486.858642578125Q532.88916015625 460.0869140625 551.965087890625 418.9130859375Q571.041015625 377.7392578125 571.041015625 321.3916015625H409.54248046875Q409.54248046875 355.130859375 398.270751953125 376.95703125Q386.9990234375 398.783203125 364.770751953125 409.65283203125Q342.54248046875 420.5224609375 309.71630859375 420.5224609375Q271.97705078125 420.5224609375 248.422607421875 404.511474609375Q224.8681640625 388.50048828125 213.726806640625 357.52197265625Q202.58544921875 326.54345703125 202.58544921875 281.49951171875V244.58740234375Q202.58544921875 200 213.99853515625 169.06494140625Q225.41162109375 138.1298828125 249.966064453125 122.34716796875Q274.5205078125 106.564453125 314.1728515625 106.564453125Q347.62939453125 106.564453125 370.12939453125 117.43408203125Q392.62939453125 128.3037109375 404.62939453125 150.858154296875Q416.62939453125 173.41259765625 416.62939453125 206.7822265625H571.041015625Q571.041015625 151.80419921875 551.965087890625 110.358642578125Q532.88916015625 68.9130859375 497.9111328125 41.9130859375Q462.93310546875 14.9130859375 415.183349609375 1.45654296875Q367.43359375 -12 310.62939453125 -12Z"/>
  </g>
  <rect x="2429" y="0" width="164" height="164" rx="10" fill="#0c9be9"/>
</svg>
